M48
;GenerationSoftware,Autodesk,EAGLE,9.5.1*%
;CreationDate,2020-01-11T03:48:32Z*%
FMAT,2
ICI,OFF
METRIC,TZ,000.000
T4C0.800
T3C0.813
T2C0.965
T1C3.000
%
G90
M71
T1
X52070Y2540
X2540Y2540
X2540Y62230
X52070Y62230
T2
X33020Y6350
X33020Y3810
X48260Y39370
X33020Y49530
X33020Y46990
X33020Y44450
X33020Y41910
X48260Y3810
X33020Y39370
X48260Y52070
X48260Y54610
X48260Y57150
X48260Y59690
X48260Y62230
X33020Y62230
X33020Y52070
X33020Y54610
X33020Y57150
X33020Y59690
X48260Y6350
X48260Y8890
X48260Y11430
X48260Y13970
X48260Y16510
X48260Y19050
X48260Y21590
X48260Y24130
X48260Y26670
X48260Y29210
X48260Y31750
X48260Y34290
X48260Y36830
X48260Y41910
X48260Y44450
X48260Y46990
X48260Y49530
X33020Y36830
X33020Y34290
X33020Y31750
X33020Y29210
X33020Y26670
X33020Y24130
X33020Y21590
X33020Y19050
X33020Y16510
X33020Y13970
X33020Y11430
X33020Y8890
T3
X24130Y39370
X24130Y36830
X16510Y39370
X16510Y36830
X8890Y39370
X8890Y36830
X11430Y54610
X11430Y49530
X8890Y49530
X11430Y44450
X8890Y44450
X25400Y54610
X15240Y54610
X25400Y49530
X15240Y49530
X25400Y44450
X15240Y44450
X8890Y54610
T4
X27510Y8780
X27510Y10780
X27510Y12780
X27510Y14780
X27510Y16780
X27510Y18780
X27510Y20780
X27510Y22780
X27510Y24780
X27510Y26780
X5510Y26780
X5510Y24780
X5510Y22780
X5510Y20780
X5510Y18780
X5510Y16780
X5510Y14780
X5510Y12780
X5510Y10780
X5510Y8780
M30