G75*
%MOIN*%
%OFA0B0*%
%FSLAX25Y25*%
%IPPOS*%
%LPD*%
%AMOC8*
5,1,8,0,0,1.08239X$1,22.5*
%
%ADD10C,0.00000*%
D10*
X0001300Y0001300D02*
X0001300Y0255001D01*
X0216221Y0255001D01*
X0216221Y0001300D01*
X0001300Y0001300D01*
X0005394Y0011300D02*
X0005396Y0011453D01*
X0005402Y0011607D01*
X0005412Y0011760D01*
X0005426Y0011912D01*
X0005444Y0012065D01*
X0005466Y0012216D01*
X0005491Y0012367D01*
X0005521Y0012518D01*
X0005555Y0012668D01*
X0005592Y0012816D01*
X0005633Y0012964D01*
X0005678Y0013110D01*
X0005727Y0013256D01*
X0005780Y0013400D01*
X0005836Y0013542D01*
X0005896Y0013683D01*
X0005960Y0013823D01*
X0006027Y0013961D01*
X0006098Y0014097D01*
X0006173Y0014231D01*
X0006250Y0014363D01*
X0006332Y0014493D01*
X0006416Y0014621D01*
X0006504Y0014747D01*
X0006595Y0014870D01*
X0006689Y0014991D01*
X0006787Y0015109D01*
X0006887Y0015225D01*
X0006991Y0015338D01*
X0007097Y0015449D01*
X0007206Y0015557D01*
X0007318Y0015662D01*
X0007432Y0015763D01*
X0007550Y0015862D01*
X0007669Y0015958D01*
X0007791Y0016051D01*
X0007916Y0016140D01*
X0008043Y0016227D01*
X0008172Y0016309D01*
X0008303Y0016389D01*
X0008436Y0016465D01*
X0008571Y0016538D01*
X0008708Y0016607D01*
X0008847Y0016672D01*
X0008987Y0016734D01*
X0009129Y0016792D01*
X0009272Y0016847D01*
X0009417Y0016898D01*
X0009563Y0016945D01*
X0009710Y0016988D01*
X0009858Y0017027D01*
X0010007Y0017063D01*
X0010157Y0017094D01*
X0010308Y0017122D01*
X0010459Y0017146D01*
X0010612Y0017166D01*
X0010764Y0017182D01*
X0010917Y0017194D01*
X0011070Y0017202D01*
X0011223Y0017206D01*
X0011377Y0017206D01*
X0011530Y0017202D01*
X0011683Y0017194D01*
X0011836Y0017182D01*
X0011988Y0017166D01*
X0012141Y0017146D01*
X0012292Y0017122D01*
X0012443Y0017094D01*
X0012593Y0017063D01*
X0012742Y0017027D01*
X0012890Y0016988D01*
X0013037Y0016945D01*
X0013183Y0016898D01*
X0013328Y0016847D01*
X0013471Y0016792D01*
X0013613Y0016734D01*
X0013753Y0016672D01*
X0013892Y0016607D01*
X0014029Y0016538D01*
X0014164Y0016465D01*
X0014297Y0016389D01*
X0014428Y0016309D01*
X0014557Y0016227D01*
X0014684Y0016140D01*
X0014809Y0016051D01*
X0014931Y0015958D01*
X0015050Y0015862D01*
X0015168Y0015763D01*
X0015282Y0015662D01*
X0015394Y0015557D01*
X0015503Y0015449D01*
X0015609Y0015338D01*
X0015713Y0015225D01*
X0015813Y0015109D01*
X0015911Y0014991D01*
X0016005Y0014870D01*
X0016096Y0014747D01*
X0016184Y0014621D01*
X0016268Y0014493D01*
X0016350Y0014363D01*
X0016427Y0014231D01*
X0016502Y0014097D01*
X0016573Y0013961D01*
X0016640Y0013823D01*
X0016704Y0013683D01*
X0016764Y0013542D01*
X0016820Y0013400D01*
X0016873Y0013256D01*
X0016922Y0013110D01*
X0016967Y0012964D01*
X0017008Y0012816D01*
X0017045Y0012668D01*
X0017079Y0012518D01*
X0017109Y0012367D01*
X0017134Y0012216D01*
X0017156Y0012065D01*
X0017174Y0011912D01*
X0017188Y0011760D01*
X0017198Y0011607D01*
X0017204Y0011453D01*
X0017206Y0011300D01*
X0017204Y0011147D01*
X0017198Y0010993D01*
X0017188Y0010840D01*
X0017174Y0010688D01*
X0017156Y0010535D01*
X0017134Y0010384D01*
X0017109Y0010233D01*
X0017079Y0010082D01*
X0017045Y0009932D01*
X0017008Y0009784D01*
X0016967Y0009636D01*
X0016922Y0009490D01*
X0016873Y0009344D01*
X0016820Y0009200D01*
X0016764Y0009058D01*
X0016704Y0008917D01*
X0016640Y0008777D01*
X0016573Y0008639D01*
X0016502Y0008503D01*
X0016427Y0008369D01*
X0016350Y0008237D01*
X0016268Y0008107D01*
X0016184Y0007979D01*
X0016096Y0007853D01*
X0016005Y0007730D01*
X0015911Y0007609D01*
X0015813Y0007491D01*
X0015713Y0007375D01*
X0015609Y0007262D01*
X0015503Y0007151D01*
X0015394Y0007043D01*
X0015282Y0006938D01*
X0015168Y0006837D01*
X0015050Y0006738D01*
X0014931Y0006642D01*
X0014809Y0006549D01*
X0014684Y0006460D01*
X0014557Y0006373D01*
X0014428Y0006291D01*
X0014297Y0006211D01*
X0014164Y0006135D01*
X0014029Y0006062D01*
X0013892Y0005993D01*
X0013753Y0005928D01*
X0013613Y0005866D01*
X0013471Y0005808D01*
X0013328Y0005753D01*
X0013183Y0005702D01*
X0013037Y0005655D01*
X0012890Y0005612D01*
X0012742Y0005573D01*
X0012593Y0005537D01*
X0012443Y0005506D01*
X0012292Y0005478D01*
X0012141Y0005454D01*
X0011988Y0005434D01*
X0011836Y0005418D01*
X0011683Y0005406D01*
X0011530Y0005398D01*
X0011377Y0005394D01*
X0011223Y0005394D01*
X0011070Y0005398D01*
X0010917Y0005406D01*
X0010764Y0005418D01*
X0010612Y0005434D01*
X0010459Y0005454D01*
X0010308Y0005478D01*
X0010157Y0005506D01*
X0010007Y0005537D01*
X0009858Y0005573D01*
X0009710Y0005612D01*
X0009563Y0005655D01*
X0009417Y0005702D01*
X0009272Y0005753D01*
X0009129Y0005808D01*
X0008987Y0005866D01*
X0008847Y0005928D01*
X0008708Y0005993D01*
X0008571Y0006062D01*
X0008436Y0006135D01*
X0008303Y0006211D01*
X0008172Y0006291D01*
X0008043Y0006373D01*
X0007916Y0006460D01*
X0007791Y0006549D01*
X0007669Y0006642D01*
X0007550Y0006738D01*
X0007432Y0006837D01*
X0007318Y0006938D01*
X0007206Y0007043D01*
X0007097Y0007151D01*
X0006991Y0007262D01*
X0006887Y0007375D01*
X0006787Y0007491D01*
X0006689Y0007609D01*
X0006595Y0007730D01*
X0006504Y0007853D01*
X0006416Y0007979D01*
X0006332Y0008107D01*
X0006250Y0008237D01*
X0006173Y0008369D01*
X0006098Y0008503D01*
X0006027Y0008639D01*
X0005960Y0008777D01*
X0005896Y0008917D01*
X0005836Y0009058D01*
X0005780Y0009200D01*
X0005727Y0009344D01*
X0005678Y0009490D01*
X0005633Y0009636D01*
X0005592Y0009784D01*
X0005555Y0009932D01*
X0005521Y0010082D01*
X0005491Y0010233D01*
X0005466Y0010384D01*
X0005444Y0010535D01*
X0005426Y0010688D01*
X0005412Y0010840D01*
X0005402Y0010993D01*
X0005396Y0011147D01*
X0005394Y0011300D01*
X0005394Y0246300D02*
X0005396Y0246453D01*
X0005402Y0246607D01*
X0005412Y0246760D01*
X0005426Y0246912D01*
X0005444Y0247065D01*
X0005466Y0247216D01*
X0005491Y0247367D01*
X0005521Y0247518D01*
X0005555Y0247668D01*
X0005592Y0247816D01*
X0005633Y0247964D01*
X0005678Y0248110D01*
X0005727Y0248256D01*
X0005780Y0248400D01*
X0005836Y0248542D01*
X0005896Y0248683D01*
X0005960Y0248823D01*
X0006027Y0248961D01*
X0006098Y0249097D01*
X0006173Y0249231D01*
X0006250Y0249363D01*
X0006332Y0249493D01*
X0006416Y0249621D01*
X0006504Y0249747D01*
X0006595Y0249870D01*
X0006689Y0249991D01*
X0006787Y0250109D01*
X0006887Y0250225D01*
X0006991Y0250338D01*
X0007097Y0250449D01*
X0007206Y0250557D01*
X0007318Y0250662D01*
X0007432Y0250763D01*
X0007550Y0250862D01*
X0007669Y0250958D01*
X0007791Y0251051D01*
X0007916Y0251140D01*
X0008043Y0251227D01*
X0008172Y0251309D01*
X0008303Y0251389D01*
X0008436Y0251465D01*
X0008571Y0251538D01*
X0008708Y0251607D01*
X0008847Y0251672D01*
X0008987Y0251734D01*
X0009129Y0251792D01*
X0009272Y0251847D01*
X0009417Y0251898D01*
X0009563Y0251945D01*
X0009710Y0251988D01*
X0009858Y0252027D01*
X0010007Y0252063D01*
X0010157Y0252094D01*
X0010308Y0252122D01*
X0010459Y0252146D01*
X0010612Y0252166D01*
X0010764Y0252182D01*
X0010917Y0252194D01*
X0011070Y0252202D01*
X0011223Y0252206D01*
X0011377Y0252206D01*
X0011530Y0252202D01*
X0011683Y0252194D01*
X0011836Y0252182D01*
X0011988Y0252166D01*
X0012141Y0252146D01*
X0012292Y0252122D01*
X0012443Y0252094D01*
X0012593Y0252063D01*
X0012742Y0252027D01*
X0012890Y0251988D01*
X0013037Y0251945D01*
X0013183Y0251898D01*
X0013328Y0251847D01*
X0013471Y0251792D01*
X0013613Y0251734D01*
X0013753Y0251672D01*
X0013892Y0251607D01*
X0014029Y0251538D01*
X0014164Y0251465D01*
X0014297Y0251389D01*
X0014428Y0251309D01*
X0014557Y0251227D01*
X0014684Y0251140D01*
X0014809Y0251051D01*
X0014931Y0250958D01*
X0015050Y0250862D01*
X0015168Y0250763D01*
X0015282Y0250662D01*
X0015394Y0250557D01*
X0015503Y0250449D01*
X0015609Y0250338D01*
X0015713Y0250225D01*
X0015813Y0250109D01*
X0015911Y0249991D01*
X0016005Y0249870D01*
X0016096Y0249747D01*
X0016184Y0249621D01*
X0016268Y0249493D01*
X0016350Y0249363D01*
X0016427Y0249231D01*
X0016502Y0249097D01*
X0016573Y0248961D01*
X0016640Y0248823D01*
X0016704Y0248683D01*
X0016764Y0248542D01*
X0016820Y0248400D01*
X0016873Y0248256D01*
X0016922Y0248110D01*
X0016967Y0247964D01*
X0017008Y0247816D01*
X0017045Y0247668D01*
X0017079Y0247518D01*
X0017109Y0247367D01*
X0017134Y0247216D01*
X0017156Y0247065D01*
X0017174Y0246912D01*
X0017188Y0246760D01*
X0017198Y0246607D01*
X0017204Y0246453D01*
X0017206Y0246300D01*
X0017204Y0246147D01*
X0017198Y0245993D01*
X0017188Y0245840D01*
X0017174Y0245688D01*
X0017156Y0245535D01*
X0017134Y0245384D01*
X0017109Y0245233D01*
X0017079Y0245082D01*
X0017045Y0244932D01*
X0017008Y0244784D01*
X0016967Y0244636D01*
X0016922Y0244490D01*
X0016873Y0244344D01*
X0016820Y0244200D01*
X0016764Y0244058D01*
X0016704Y0243917D01*
X0016640Y0243777D01*
X0016573Y0243639D01*
X0016502Y0243503D01*
X0016427Y0243369D01*
X0016350Y0243237D01*
X0016268Y0243107D01*
X0016184Y0242979D01*
X0016096Y0242853D01*
X0016005Y0242730D01*
X0015911Y0242609D01*
X0015813Y0242491D01*
X0015713Y0242375D01*
X0015609Y0242262D01*
X0015503Y0242151D01*
X0015394Y0242043D01*
X0015282Y0241938D01*
X0015168Y0241837D01*
X0015050Y0241738D01*
X0014931Y0241642D01*
X0014809Y0241549D01*
X0014684Y0241460D01*
X0014557Y0241373D01*
X0014428Y0241291D01*
X0014297Y0241211D01*
X0014164Y0241135D01*
X0014029Y0241062D01*
X0013892Y0240993D01*
X0013753Y0240928D01*
X0013613Y0240866D01*
X0013471Y0240808D01*
X0013328Y0240753D01*
X0013183Y0240702D01*
X0013037Y0240655D01*
X0012890Y0240612D01*
X0012742Y0240573D01*
X0012593Y0240537D01*
X0012443Y0240506D01*
X0012292Y0240478D01*
X0012141Y0240454D01*
X0011988Y0240434D01*
X0011836Y0240418D01*
X0011683Y0240406D01*
X0011530Y0240398D01*
X0011377Y0240394D01*
X0011223Y0240394D01*
X0011070Y0240398D01*
X0010917Y0240406D01*
X0010764Y0240418D01*
X0010612Y0240434D01*
X0010459Y0240454D01*
X0010308Y0240478D01*
X0010157Y0240506D01*
X0010007Y0240537D01*
X0009858Y0240573D01*
X0009710Y0240612D01*
X0009563Y0240655D01*
X0009417Y0240702D01*
X0009272Y0240753D01*
X0009129Y0240808D01*
X0008987Y0240866D01*
X0008847Y0240928D01*
X0008708Y0240993D01*
X0008571Y0241062D01*
X0008436Y0241135D01*
X0008303Y0241211D01*
X0008172Y0241291D01*
X0008043Y0241373D01*
X0007916Y0241460D01*
X0007791Y0241549D01*
X0007669Y0241642D01*
X0007550Y0241738D01*
X0007432Y0241837D01*
X0007318Y0241938D01*
X0007206Y0242043D01*
X0007097Y0242151D01*
X0006991Y0242262D01*
X0006887Y0242375D01*
X0006787Y0242491D01*
X0006689Y0242609D01*
X0006595Y0242730D01*
X0006504Y0242853D01*
X0006416Y0242979D01*
X0006332Y0243107D01*
X0006250Y0243237D01*
X0006173Y0243369D01*
X0006098Y0243503D01*
X0006027Y0243639D01*
X0005960Y0243777D01*
X0005896Y0243917D01*
X0005836Y0244058D01*
X0005780Y0244200D01*
X0005727Y0244344D01*
X0005678Y0244490D01*
X0005633Y0244636D01*
X0005592Y0244784D01*
X0005555Y0244932D01*
X0005521Y0245082D01*
X0005491Y0245233D01*
X0005466Y0245384D01*
X0005444Y0245535D01*
X0005426Y0245688D01*
X0005412Y0245840D01*
X0005402Y0245993D01*
X0005396Y0246147D01*
X0005394Y0246300D01*
X0200394Y0246300D02*
X0200396Y0246453D01*
X0200402Y0246607D01*
X0200412Y0246760D01*
X0200426Y0246912D01*
X0200444Y0247065D01*
X0200466Y0247216D01*
X0200491Y0247367D01*
X0200521Y0247518D01*
X0200555Y0247668D01*
X0200592Y0247816D01*
X0200633Y0247964D01*
X0200678Y0248110D01*
X0200727Y0248256D01*
X0200780Y0248400D01*
X0200836Y0248542D01*
X0200896Y0248683D01*
X0200960Y0248823D01*
X0201027Y0248961D01*
X0201098Y0249097D01*
X0201173Y0249231D01*
X0201250Y0249363D01*
X0201332Y0249493D01*
X0201416Y0249621D01*
X0201504Y0249747D01*
X0201595Y0249870D01*
X0201689Y0249991D01*
X0201787Y0250109D01*
X0201887Y0250225D01*
X0201991Y0250338D01*
X0202097Y0250449D01*
X0202206Y0250557D01*
X0202318Y0250662D01*
X0202432Y0250763D01*
X0202550Y0250862D01*
X0202669Y0250958D01*
X0202791Y0251051D01*
X0202916Y0251140D01*
X0203043Y0251227D01*
X0203172Y0251309D01*
X0203303Y0251389D01*
X0203436Y0251465D01*
X0203571Y0251538D01*
X0203708Y0251607D01*
X0203847Y0251672D01*
X0203987Y0251734D01*
X0204129Y0251792D01*
X0204272Y0251847D01*
X0204417Y0251898D01*
X0204563Y0251945D01*
X0204710Y0251988D01*
X0204858Y0252027D01*
X0205007Y0252063D01*
X0205157Y0252094D01*
X0205308Y0252122D01*
X0205459Y0252146D01*
X0205612Y0252166D01*
X0205764Y0252182D01*
X0205917Y0252194D01*
X0206070Y0252202D01*
X0206223Y0252206D01*
X0206377Y0252206D01*
X0206530Y0252202D01*
X0206683Y0252194D01*
X0206836Y0252182D01*
X0206988Y0252166D01*
X0207141Y0252146D01*
X0207292Y0252122D01*
X0207443Y0252094D01*
X0207593Y0252063D01*
X0207742Y0252027D01*
X0207890Y0251988D01*
X0208037Y0251945D01*
X0208183Y0251898D01*
X0208328Y0251847D01*
X0208471Y0251792D01*
X0208613Y0251734D01*
X0208753Y0251672D01*
X0208892Y0251607D01*
X0209029Y0251538D01*
X0209164Y0251465D01*
X0209297Y0251389D01*
X0209428Y0251309D01*
X0209557Y0251227D01*
X0209684Y0251140D01*
X0209809Y0251051D01*
X0209931Y0250958D01*
X0210050Y0250862D01*
X0210168Y0250763D01*
X0210282Y0250662D01*
X0210394Y0250557D01*
X0210503Y0250449D01*
X0210609Y0250338D01*
X0210713Y0250225D01*
X0210813Y0250109D01*
X0210911Y0249991D01*
X0211005Y0249870D01*
X0211096Y0249747D01*
X0211184Y0249621D01*
X0211268Y0249493D01*
X0211350Y0249363D01*
X0211427Y0249231D01*
X0211502Y0249097D01*
X0211573Y0248961D01*
X0211640Y0248823D01*
X0211704Y0248683D01*
X0211764Y0248542D01*
X0211820Y0248400D01*
X0211873Y0248256D01*
X0211922Y0248110D01*
X0211967Y0247964D01*
X0212008Y0247816D01*
X0212045Y0247668D01*
X0212079Y0247518D01*
X0212109Y0247367D01*
X0212134Y0247216D01*
X0212156Y0247065D01*
X0212174Y0246912D01*
X0212188Y0246760D01*
X0212198Y0246607D01*
X0212204Y0246453D01*
X0212206Y0246300D01*
X0212204Y0246147D01*
X0212198Y0245993D01*
X0212188Y0245840D01*
X0212174Y0245688D01*
X0212156Y0245535D01*
X0212134Y0245384D01*
X0212109Y0245233D01*
X0212079Y0245082D01*
X0212045Y0244932D01*
X0212008Y0244784D01*
X0211967Y0244636D01*
X0211922Y0244490D01*
X0211873Y0244344D01*
X0211820Y0244200D01*
X0211764Y0244058D01*
X0211704Y0243917D01*
X0211640Y0243777D01*
X0211573Y0243639D01*
X0211502Y0243503D01*
X0211427Y0243369D01*
X0211350Y0243237D01*
X0211268Y0243107D01*
X0211184Y0242979D01*
X0211096Y0242853D01*
X0211005Y0242730D01*
X0210911Y0242609D01*
X0210813Y0242491D01*
X0210713Y0242375D01*
X0210609Y0242262D01*
X0210503Y0242151D01*
X0210394Y0242043D01*
X0210282Y0241938D01*
X0210168Y0241837D01*
X0210050Y0241738D01*
X0209931Y0241642D01*
X0209809Y0241549D01*
X0209684Y0241460D01*
X0209557Y0241373D01*
X0209428Y0241291D01*
X0209297Y0241211D01*
X0209164Y0241135D01*
X0209029Y0241062D01*
X0208892Y0240993D01*
X0208753Y0240928D01*
X0208613Y0240866D01*
X0208471Y0240808D01*
X0208328Y0240753D01*
X0208183Y0240702D01*
X0208037Y0240655D01*
X0207890Y0240612D01*
X0207742Y0240573D01*
X0207593Y0240537D01*
X0207443Y0240506D01*
X0207292Y0240478D01*
X0207141Y0240454D01*
X0206988Y0240434D01*
X0206836Y0240418D01*
X0206683Y0240406D01*
X0206530Y0240398D01*
X0206377Y0240394D01*
X0206223Y0240394D01*
X0206070Y0240398D01*
X0205917Y0240406D01*
X0205764Y0240418D01*
X0205612Y0240434D01*
X0205459Y0240454D01*
X0205308Y0240478D01*
X0205157Y0240506D01*
X0205007Y0240537D01*
X0204858Y0240573D01*
X0204710Y0240612D01*
X0204563Y0240655D01*
X0204417Y0240702D01*
X0204272Y0240753D01*
X0204129Y0240808D01*
X0203987Y0240866D01*
X0203847Y0240928D01*
X0203708Y0240993D01*
X0203571Y0241062D01*
X0203436Y0241135D01*
X0203303Y0241211D01*
X0203172Y0241291D01*
X0203043Y0241373D01*
X0202916Y0241460D01*
X0202791Y0241549D01*
X0202669Y0241642D01*
X0202550Y0241738D01*
X0202432Y0241837D01*
X0202318Y0241938D01*
X0202206Y0242043D01*
X0202097Y0242151D01*
X0201991Y0242262D01*
X0201887Y0242375D01*
X0201787Y0242491D01*
X0201689Y0242609D01*
X0201595Y0242730D01*
X0201504Y0242853D01*
X0201416Y0242979D01*
X0201332Y0243107D01*
X0201250Y0243237D01*
X0201173Y0243369D01*
X0201098Y0243503D01*
X0201027Y0243639D01*
X0200960Y0243777D01*
X0200896Y0243917D01*
X0200836Y0244058D01*
X0200780Y0244200D01*
X0200727Y0244344D01*
X0200678Y0244490D01*
X0200633Y0244636D01*
X0200592Y0244784D01*
X0200555Y0244932D01*
X0200521Y0245082D01*
X0200491Y0245233D01*
X0200466Y0245384D01*
X0200444Y0245535D01*
X0200426Y0245688D01*
X0200412Y0245840D01*
X0200402Y0245993D01*
X0200396Y0246147D01*
X0200394Y0246300D01*
X0200394Y0011300D02*
X0200396Y0011453D01*
X0200402Y0011607D01*
X0200412Y0011760D01*
X0200426Y0011912D01*
X0200444Y0012065D01*
X0200466Y0012216D01*
X0200491Y0012367D01*
X0200521Y0012518D01*
X0200555Y0012668D01*
X0200592Y0012816D01*
X0200633Y0012964D01*
X0200678Y0013110D01*
X0200727Y0013256D01*
X0200780Y0013400D01*
X0200836Y0013542D01*
X0200896Y0013683D01*
X0200960Y0013823D01*
X0201027Y0013961D01*
X0201098Y0014097D01*
X0201173Y0014231D01*
X0201250Y0014363D01*
X0201332Y0014493D01*
X0201416Y0014621D01*
X0201504Y0014747D01*
X0201595Y0014870D01*
X0201689Y0014991D01*
X0201787Y0015109D01*
X0201887Y0015225D01*
X0201991Y0015338D01*
X0202097Y0015449D01*
X0202206Y0015557D01*
X0202318Y0015662D01*
X0202432Y0015763D01*
X0202550Y0015862D01*
X0202669Y0015958D01*
X0202791Y0016051D01*
X0202916Y0016140D01*
X0203043Y0016227D01*
X0203172Y0016309D01*
X0203303Y0016389D01*
X0203436Y0016465D01*
X0203571Y0016538D01*
X0203708Y0016607D01*
X0203847Y0016672D01*
X0203987Y0016734D01*
X0204129Y0016792D01*
X0204272Y0016847D01*
X0204417Y0016898D01*
X0204563Y0016945D01*
X0204710Y0016988D01*
X0204858Y0017027D01*
X0205007Y0017063D01*
X0205157Y0017094D01*
X0205308Y0017122D01*
X0205459Y0017146D01*
X0205612Y0017166D01*
X0205764Y0017182D01*
X0205917Y0017194D01*
X0206070Y0017202D01*
X0206223Y0017206D01*
X0206377Y0017206D01*
X0206530Y0017202D01*
X0206683Y0017194D01*
X0206836Y0017182D01*
X0206988Y0017166D01*
X0207141Y0017146D01*
X0207292Y0017122D01*
X0207443Y0017094D01*
X0207593Y0017063D01*
X0207742Y0017027D01*
X0207890Y0016988D01*
X0208037Y0016945D01*
X0208183Y0016898D01*
X0208328Y0016847D01*
X0208471Y0016792D01*
X0208613Y0016734D01*
X0208753Y0016672D01*
X0208892Y0016607D01*
X0209029Y0016538D01*
X0209164Y0016465D01*
X0209297Y0016389D01*
X0209428Y0016309D01*
X0209557Y0016227D01*
X0209684Y0016140D01*
X0209809Y0016051D01*
X0209931Y0015958D01*
X0210050Y0015862D01*
X0210168Y0015763D01*
X0210282Y0015662D01*
X0210394Y0015557D01*
X0210503Y0015449D01*
X0210609Y0015338D01*
X0210713Y0015225D01*
X0210813Y0015109D01*
X0210911Y0014991D01*
X0211005Y0014870D01*
X0211096Y0014747D01*
X0211184Y0014621D01*
X0211268Y0014493D01*
X0211350Y0014363D01*
X0211427Y0014231D01*
X0211502Y0014097D01*
X0211573Y0013961D01*
X0211640Y0013823D01*
X0211704Y0013683D01*
X0211764Y0013542D01*
X0211820Y0013400D01*
X0211873Y0013256D01*
X0211922Y0013110D01*
X0211967Y0012964D01*
X0212008Y0012816D01*
X0212045Y0012668D01*
X0212079Y0012518D01*
X0212109Y0012367D01*
X0212134Y0012216D01*
X0212156Y0012065D01*
X0212174Y0011912D01*
X0212188Y0011760D01*
X0212198Y0011607D01*
X0212204Y0011453D01*
X0212206Y0011300D01*
X0212204Y0011147D01*
X0212198Y0010993D01*
X0212188Y0010840D01*
X0212174Y0010688D01*
X0212156Y0010535D01*
X0212134Y0010384D01*
X0212109Y0010233D01*
X0212079Y0010082D01*
X0212045Y0009932D01*
X0212008Y0009784D01*
X0211967Y0009636D01*
X0211922Y0009490D01*
X0211873Y0009344D01*
X0211820Y0009200D01*
X0211764Y0009058D01*
X0211704Y0008917D01*
X0211640Y0008777D01*
X0211573Y0008639D01*
X0211502Y0008503D01*
X0211427Y0008369D01*
X0211350Y0008237D01*
X0211268Y0008107D01*
X0211184Y0007979D01*
X0211096Y0007853D01*
X0211005Y0007730D01*
X0210911Y0007609D01*
X0210813Y0007491D01*
X0210713Y0007375D01*
X0210609Y0007262D01*
X0210503Y0007151D01*
X0210394Y0007043D01*
X0210282Y0006938D01*
X0210168Y0006837D01*
X0210050Y0006738D01*
X0209931Y0006642D01*
X0209809Y0006549D01*
X0209684Y0006460D01*
X0209557Y0006373D01*
X0209428Y0006291D01*
X0209297Y0006211D01*
X0209164Y0006135D01*
X0209029Y0006062D01*
X0208892Y0005993D01*
X0208753Y0005928D01*
X0208613Y0005866D01*
X0208471Y0005808D01*
X0208328Y0005753D01*
X0208183Y0005702D01*
X0208037Y0005655D01*
X0207890Y0005612D01*
X0207742Y0005573D01*
X0207593Y0005537D01*
X0207443Y0005506D01*
X0207292Y0005478D01*
X0207141Y0005454D01*
X0206988Y0005434D01*
X0206836Y0005418D01*
X0206683Y0005406D01*
X0206530Y0005398D01*
X0206377Y0005394D01*
X0206223Y0005394D01*
X0206070Y0005398D01*
X0205917Y0005406D01*
X0205764Y0005418D01*
X0205612Y0005434D01*
X0205459Y0005454D01*
X0205308Y0005478D01*
X0205157Y0005506D01*
X0205007Y0005537D01*
X0204858Y0005573D01*
X0204710Y0005612D01*
X0204563Y0005655D01*
X0204417Y0005702D01*
X0204272Y0005753D01*
X0204129Y0005808D01*
X0203987Y0005866D01*
X0203847Y0005928D01*
X0203708Y0005993D01*
X0203571Y0006062D01*
X0203436Y0006135D01*
X0203303Y0006211D01*
X0203172Y0006291D01*
X0203043Y0006373D01*
X0202916Y0006460D01*
X0202791Y0006549D01*
X0202669Y0006642D01*
X0202550Y0006738D01*
X0202432Y0006837D01*
X0202318Y0006938D01*
X0202206Y0007043D01*
X0202097Y0007151D01*
X0201991Y0007262D01*
X0201887Y0007375D01*
X0201787Y0007491D01*
X0201689Y0007609D01*
X0201595Y0007730D01*
X0201504Y0007853D01*
X0201416Y0007979D01*
X0201332Y0008107D01*
X0201250Y0008237D01*
X0201173Y0008369D01*
X0201098Y0008503D01*
X0201027Y0008639D01*
X0200960Y0008777D01*
X0200896Y0008917D01*
X0200836Y0009058D01*
X0200780Y0009200D01*
X0200727Y0009344D01*
X0200678Y0009490D01*
X0200633Y0009636D01*
X0200592Y0009784D01*
X0200555Y0009932D01*
X0200521Y0010082D01*
X0200491Y0010233D01*
X0200466Y0010384D01*
X0200444Y0010535D01*
X0200426Y0010688D01*
X0200412Y0010840D01*
X0200402Y0010993D01*
X0200396Y0011147D01*
X0200394Y0011300D01*
M02*
